<svg viewBox="0 0 200 200" fill="none" xmlns="http://www.w3.org/2000/svg">
  <rect width="200" height="200" rx="40" fill="#6366f1"/>
  <g transform="translate(100,105) scale(0.75)">
    <path d="M-5,-75 C-15,-85 -25,-80 -30,-70 L-45,-30 C-50,-15 -55,5 -55,25 C-55,50 -40,65 -15,65 L15,65 C40,65 55,50 55,25 C55,5 50,-15 45,-30 L30,-70 C25,-80 15,-85 5,-75" fill="white"/>
    <ellipse cx="-18" cy="-10" rx="8" ry="10" fill="#6366f1"/>
    <ellipse cx="18" cy="-10" rx="8" ry="10" fill="#6366f1"/>
    <ellipse cx="-18" cy="-8" rx="4" ry="5" fill="#312e81"/>
    <ellipse cx="18" cy="-8" rx="4" ry="5" fill="#312e81"/>
    <ellipse cx="0" cy="18" rx="10" ry="6" fill="#e0e7ff" opacity="0.5"/>
    <circle cx="-5" cy="16" r="2" fill="#6366f1"/>
    <circle cx="5" cy="16" r="2" fill="#6366f1"/>
    <path d="M-35,-50 C-50,-65 -55,-50 -50,-35" stroke="white" stroke-width="6" fill="none" stroke-linecap="round"/>
    <path d="M35,-50 C50,-65 55,-50 50,-35" stroke="white" stroke-width="6" fill="none" stroke-linecap="round"/>
  </g>
</svg>
